# xmcd CD database file
#
# Track frame offsets:
#	150
#	48891
#	112419
#	189855
#	293673
#
# Disc length: 4355 seconds
#
# Revision: 0
# Processed by: cddbd v1.5.1PL0 Copyright (c) Steve Scherf et al.
# Submitted via: CDex 1.50
#
DISCID=41110105
DTITLE=Joe Henderson - John Scofield Quartet - Live at the Blue Note [CD2]
DYEAR=2004
DGENRE=Jazz
TTITLE0=Serenity
TTITLE1=Beatrice
TTITLE2=Ask Me Now
TTITLE3=Take the A Train
TTITLE4=unknown
EXTD=YEAR: 2004
EXTT0=
EXTT1=
EXTT2=
EXTT3=
EXTT4=
PLAYORDER=
